<?xml version="1.0" encoding="iso-8859-1"?>
<!-- Generator: Adobe Illustrator 19.0.0, SVG Export Plug-In . SVG Version: 6.00 Build 0)  -->
<svg version="1.1" id="Layer_1" xmlns="http://www.w3.org/2000/svg" xmlns:xlink="http://www.w3.org/1999/xlink" x="0px" y="0px"
	 viewBox="0 0 512 512" style="enable-background:new 0 0 512 512;" xml:space="preserve">
<g>
	<g>
		<circle cx="312.778" cy="362.213" r="8.17"/>
	</g>
</g>
<g>
	<g>
		<circle cx="285.544" cy="384" r="8.17"/>
	</g>
</g>
<g>
	<g>
		<circle cx="199.212" cy="324.085" r="8.17"/>
	</g>
</g>
<g>
	<g>
		<path d="M356.766,163.855v-50.878c9.509-3.373,16.34-12.455,16.34-23.105c0-13.515-10.995-24.511-24.511-24.511h-1.248
			l9.307-55.848c0.394-2.369-0.272-4.792-1.825-6.624C353.278,1.057,350.998,0,348.596,0H163.404c-2.402,0-4.682,1.057-6.234,2.889
			c-1.552,1.832-2.22,4.255-1.825,6.624l9.307,55.848h-1.248c-13.516,0-24.511,10.996-24.511,24.511
			c0,10.651,6.831,19.733,16.34,23.105v50.878c-36.715,4.077-65.362,35.296-65.362,73.081v234.213
			c0,22.526,18.325,40.851,40.851,40.851h250.553c22.526,0,40.851-18.325,40.851-40.851V236.936
			C422.128,199.152,393.481,167.933,356.766,163.855z M338.952,16.34l-8.17,49.021H181.22l-8.17-49.021H338.952z M405.787,471.149
			c0,13.515-10.995,24.511-24.511,24.511H130.723c-13.516,0-24.511-10.996-24.511-24.511V236.936
			c0-31.535,25.656-57.191,57.191-57.191c4.512,0,8.17-3.657,8.17-8.17v-57.191h24.511c4.512,0,8.17-3.657,8.17-8.17
			c0-4.513-3.658-8.17-8.17-8.17h-32.681c-4.506,0-8.17-3.665-8.17-8.17c0-4.506,3.665-8.17,8.17-8.17h174.295
			c0.004,0,0.009,0.001,0.013,0.001c0.008,0,0.015-0.001,0.024-0.001h10.86c4.506,0,8.17,3.665,8.17,8.17
			c0,4.506-3.665,8.17-8.17,8.17h-119.83c-4.512,0-8.17,3.657-8.17,8.17c0,4.513,3.658,8.17,8.17,8.17h111.66v57.191
			c0,4.513,3.658,8.17,8.17,8.17c31.536,0,57.191,25.657,57.191,57.191V471.149z"/>
	</g>
</g>
<g>
	<g>
		<path d="M315.915,163.404h-119.83c-4.512,0-8.17,3.657-8.17,8.17s3.658,8.17,8.17,8.17h119.83c4.512,0,8.17-3.657,8.17-8.17
			S320.427,163.404,315.915,163.404z"/>
	</g>
</g>
<g>
	<g>
		<path d="M389.447,373.105V269.616c0-4.512-3.658-8.169-8.17-8.169H196.085c-1.612,0-3.19,0.477-4.532,1.373l-11.809,7.872
			l-11.809-7.873c-1.342-0.894-2.919-1.373-4.532-1.373h-32.681c-4.512,0-8.17,3.657-8.17,8.17v168.851
			c0,4.513,3.658,8.17,8.17,8.17h250.553c4.512,0,8.17-3.657,8.17-8.17v-32.681c0-1.612-0.477-3.191-1.373-4.532l-7.873-11.809
			l7.873-11.809C388.969,376.296,389.447,374.718,389.447,373.105z M373.106,370.632l-9.521,14.281c-1.83,2.745-1.83,6.319,0,9.064
			l9.521,14.281v22.039H138.894V277.787h22.037l14.283,9.521c2.745,1.83,6.319,1.83,9.063,0l14.283-9.521h174.547V370.632z"/>
	</g>
</g>
<g>
</g>
<g>
</g>
<g>
</g>
<g>
</g>
<g>
</g>
<g>
</g>
<g>
</g>
<g>
</g>
<g>
</g>
<g>
</g>
<g>
</g>
<g>
</g>
<g>
</g>
<g>
</g>
<g>
</g>
</svg>
