<?xml version="1.0" encoding="iso-8859-1"?>
<!-- Generator: Adobe Illustrator 18.0.0, SVG Export Plug-In . SVG Version: 6.00 Build 0)  -->
<!DOCTYPE svg PUBLIC "-//W3C//DTD SVG 1.1//EN" "http://www.w3.org/Graphics/SVG/1.1/DTD/svg11.dtd">
<svg version="1.1" id="Capa_1" xmlns="http://www.w3.org/2000/svg" xmlns:xlink="http://www.w3.org/1999/xlink" x="0px" y="0px"
	 viewBox="0 0 465.481 465.481" style="enable-background:new 0 0 465.481 465.481;" xml:space="preserve">
<g>
	<path d="M232.749,274.798c-8.266-5.696-18.05-8.761-28.303-8.761c-13.36,0-25.92,5.202-35.367,14.649
		c-9.446,9.447-14.648,22.007-14.648,35.366s5.202,25.92,14.648,35.366l56.591,56.591c1.876,1.875,4.419,2.929,7.071,2.929
		s5.195-1.054,7.071-2.929l56.59-56.591c9.446-9.447,14.649-22.007,14.649-35.366s-5.203-25.92-14.649-35.366
		C279.114,263.398,252.218,261.436,232.749,274.798z M282.259,337.276l-49.519,49.52l-49.52-49.52
		c-5.669-5.669-8.791-13.207-8.791-21.224s3.122-15.555,8.791-21.224c5.852-5.852,13.538-8.777,21.224-8.777
		c7.687,0,15.373,2.926,21.225,8.777c3.906,3.905,10.236,3.905,14.143,0c5.669-5.669,13.206-8.791,21.224-8.791
		c8.018,0,15.555,3.122,21.224,8.791s8.792,13.207,8.792,21.224S287.928,331.607,282.259,337.276z"/>
	<path d="M369.437,409.028l-25.954-156.922c-3.894-23.533-24.03-40.613-47.883-40.613h-4.859v-21.015
		c13.605-3.359,23.727-15.663,23.727-30.292c0-17.206-13.998-31.204-31.203-31.204H182.217c-17.205,0-31.203,13.998-31.203,31.204
		c0,14.629,10.121,26.932,23.727,30.292v21.015h-4.859c-23.853,0-43.989,17.08-47.883,40.614L96.044,409.028
		c-2.331,14.091,1.631,28.42,10.87,39.313c9.238,10.893,22.729,17.14,37.013,17.14h177.627c14.283,0,27.773-6.247,37.012-17.139
		C367.805,437.449,371.767,423.12,369.437,409.028z M171.014,160.186c0-6.178,5.025-11.204,11.203-11.204h101.047
		c6.178,0,11.203,5.026,11.203,11.204s-5.025,11.204-11.203,11.204H182.217C176.04,171.389,171.014,166.363,171.014,160.186z
		 M194.741,191.389h76v20.103h-76V191.389z M343.314,435.405c-5.432,6.404-13.363,10.076-21.76,10.076H143.927
		c-8.397,0-16.329-3.673-21.761-10.077c-5.431-6.404-7.761-14.828-6.39-23.112l25.954-156.922
		c2.288-13.835,14.128-23.877,28.15-23.877H295.6c14.022,0,25.862,10.042,28.15,23.877l25.954,156.922
		C351.075,420.577,348.746,429.001,343.314,435.405z"/>
	<path d="M261.89,76.997c21.229,0,38.499-17.27,38.499-38.499S283.119,0,261.89,0c-21.228,0-38.498,17.271-38.498,38.499
		S240.663,76.997,261.89,76.997z M261.89,20c10.2,0,18.499,8.299,18.499,18.499s-8.299,18.499-18.499,18.499
		c-10.2,0-18.498-8.298-18.498-18.499S251.69,20,261.89,20z"/>
	<path d="M196.646,118.712c15.438,0,27.997-12.559,27.997-27.997c0-15.438-12.56-27.997-27.997-27.997s-27.997,12.559-27.997,27.997
		C168.649,106.153,181.208,118.712,196.646,118.712z M196.646,82.719c4.409,0,7.997,3.587,7.997,7.997s-3.588,7.997-7.997,7.997
		s-7.997-3.587-7.997-7.997S192.237,82.719,196.646,82.719z"/>
</g>
<g>
</g>
<g>
</g>
<g>
</g>
<g>
</g>
<g>
</g>
<g>
</g>
<g>
</g>
<g>
</g>
<g>
</g>
<g>
</g>
<g>
</g>
<g>
</g>
<g>
</g>
<g>
</g>
<g>
</g>
</svg>
